:SAMPLES-PER-SECOND 30
:FULLY-SPECIFIED
:DEGREES
183
root  -3.727 40.8913 -0.555034 175.758 -88.7599 -173.725
RightUpLeg  3.31008 -0.973208 -0.926337
RightLeg  -2.42822 -19.7459 0.748378
RightFoot  -1.51356 -0.248283 2.76055
RightToes  -3.10096e-008 1.75238e-005 3.56266e-009
Spine  -3.3486 -3.26901 -15.3867
Spine1  3.73913 -5.79596 16.2446
HEad  -11.8659 10.7624 5.73582
LeftShoulder1  1.13803 -1.90255 -14.0935
LeftArm  -77.7009 -42.4211 2.22173
LeftForeArm  77.3175 -78.0048 -108.182
LeftHand  0.292867 -4.4807 -3.14055
RightShoulder  2.62385 5.43397 23.1855
RightArm  -2.63149 -40.0179 40.1962
RightForeArm  16.06 62.3303 20.4892
RightHand  -0.618095 7.48844 -5.91795
LeftUpLeg  1.52597 1.52522 3.13123
LeftLeg  -0.964595 12.3927 -0.591474
LeftFoot  -1.48913 0.284894 -3.20234
LeftToes  4.7633e-008 1.48299e-008 1.30754e-009
184
root  -3.89993 40.8763 -0.545544 -179.879 -88.4209 -178.111
RightUpLeg  3.42424 -0.938546 -0.984261
RightLeg  -2.08679 -19.3828 0.453686
RightFoot  -1.83054 -0.255248 2.91374
RightToes  -3.10096e-008 1.75238e-005 3.56266e-009
Spine  -3.14811 -2.85953 -16.507
Spine1  2.40298 -5.44424 17.874
HEad  -11.926 10.2536 5.61343
LeftShoulder1  0.874135 -0.870983 -12.9705
LeftArm  -87.1684 -45.3702 7.00724
LeftForeArm  117.139 -72.3103 -141.772
LeftHand  0.350766 -6.16794 -3.18972
RightShoulder  2.71419 5.72698 23.2348
RightArm  -4.74555 -40.4569 40.2436
RightForeArm  15.7084 62.5587 20.7617
RightHand  -0.672623 7.58453 -6.37543
LeftUpLeg  1.83681 1.43967 2.97145
LeftLeg  -0.843205 12.8257 -0.506631
LeftFoot  -1.87821 0.28637 -3.32359
LeftToes  4.7633e-008 1.48299e-008 1.30754e-009
185
root  -3.98793 40.8612 -0.541542 -178.945 -88.017 -179.068
RightUpLeg  3.31115 -0.880529 -0.996337
RightLeg  -1.58312 -18.9838 0.173568
RightFoot  -2.08125 -0.255537 2.96249
RightToes  -3.10096e-008 1.75238e-005 3.56266e-009
Spine  -2.88762 -2.10165 -17.0497
Spine1  1.77644 -4.754 18.8187
HEad  -13.3865 9.45987 5.8591
LeftShoulder1  0.724551 -0.174746 -12.5913
LeftArm  -99.2563 -48.2821 14.2439
LeftForeArm  135.51 -65.2178 -155.11
LeftHand  0.315188 -7.29039 -2.52952
RightShoulder  2.67188 5.55438 23.3218
RightArm  -7.72104 -40.6949 41.2446
RightForeArm  16.3122 62.8723 21.0121
RightHand  -0.607598 8.09311 -5.5948
LeftUpLeg  1.83915 1.5182 2.94919
LeftLeg  -0.379422 13.1544 -0.476847
LeftFoot  -2.21207 0.278063 -3.31635
LeftToes  4.7633e-008 1.48299e-008 1.30754e-009
186
root  -4.01719 40.8579 -0.531444 -177.168 -87.6681 179.168
RightUpLeg  3.09001 -0.73771 -1.00755
RightLeg  -1.1322 -18.7128 -0.18533
RightFoot  -2.21995 -0.270863 3.20541
RightToes  -3.10096e-008 1.75238e-005 3.56266e-009
Spine  -2.95588 -1.714 -16.2966
Spine1  2.12089 -4.22706 17.6801
HEad  -15.1636 9.94122 6.29642
LeftShoulder1  0.481481 0.96397 -11.8182
LeftArm  -110.758 -49.8352 20.8658
LeftForeArm  143.386 -59.1053 -161.134
LeftHand  0.258329 -8.87354 -1.69956
RightShoulder  2.94326 6.21119 24.1804
RightArm  -10.1489 -40.512 42.2299
RightForeArm  15.0742 62.7988 21.0867
RightHand  -0.648713 7.30241 -6.27166
LeftUpLeg  1.9518 1.43746 2.81679
LeftLeg  -0.451658 13.5839 -0.459932
LeftFoot  -2.19026 0.268893 -3.19544
LeftToes  4.7633e-008 1.48299e-008 1.30754e-009
187
root  -3.95862 40.8697 -0.518173 -177.455 -87.5457 179.77
RightUpLeg  2.50235 -0.612579 -0.995137
RightLeg  -0.853592 -18.6027 -0.310476
RightFoot  -2.06681 -0.284682 3.33388
RightToes  -3.10096e-008 1.75238e-005 3.56266e-009
Spine  -2.50579 -1.34798 -15.5115
Spine1  1.80554 -3.70836 16.6236
HEad  -15.6157 10.0203 6.61474
LeftShoulder1  0.37933 1.51541 -11.9261
LeftArm  -119.565 -49.7358 25.497
LeftForeArm  144.184 -55.4332 -163.468
LeftHand  0.234804 -8.66416 -1.54807
RightShoulder  2.97397 6.31259 24.1744
RightArm  -11.1826 -39.9552 43.6586
RightForeArm  14.2933 62.3704 20.7366
RightHand  -0.679011 7.35717 -6.52642
LeftUpLeg  1.58886 1.31361 2.78614
LeftLeg  -0.577283 13.8264 -0.439419
LeftFoot  -1.96782 0.27773 -3.24394
LeftToes  4.7633e-008 1.48299e-008 1.30754e-009
188
root  -3.81708 40.8905 -0.519874 -175.949 -87.5694 178.685
RightUpLeg  1.67583 -0.581721 -1.06222
RightLeg  -0.604475 -18.6389 -0.328808
RightFoot  -1.78252 -0.283594 3.24618
RightToes  -3.10096e-008 1.75238e-005 3.56266e-009
Spine  -1.45019 -1.02186 -15.1334
Spine1  1.21015 -3.33571 16.0368
HEad  -15.5316 9.91426 6.15454
LeftShoulder1  0.418169 1.41004 -12.9192
LeftArm  -123.771 -48.9238 26.5176
LeftForeArm  143.006 -54.3495 -163.969
LeftHand  0.274153 -8.75994 -1.85382
RightShoulder  3.07504 6.58213 24.3755
RightArm  -10.1416 -39.495 43.7284
RightForeArm  15.0634 62.6656 20.9463
RightHand  -0.680281 7.32092 -6.55278
LeftUpLeg  1.1215 1.17384 2.71183
LeftLeg  -1.10832 14.0416 -0.575935
LeftFoot  -1.4035 0.281791 -3.1446
LeftToes  4.7633e-008 1.48299e-008 1.30754e-009
189
root  -3.60298 40.9126 -0.53853 -178.964 -87.865 -177.958
RightUpLeg  1.12486 -0.476297 -0.920588
RightLeg  -0.920304 -19.0431 -0.0658765
RightFoot  -1.29612 -0.272102 2.99258
RightToes  -3.10096e-008 1.75238e-005 3.56266e-009
Spine  -0.293236 -0.759777 -14.418
Spine1  1.52395 -3.08915 14.9054
HEad  -15.5971 9.38913 6.1267
LeftShoulder1  0.50157 1.08892 -13.7516
LeftArm  -122.827 -48.2577 23.9019
LeftForeArm  140.251 -56.3042 -162.615
LeftHand  0.298997 -8.78855 -2.04409
RightShoulder  3.17074 6.67948 25.0554
RightArm  -8.26002 -38.3369 43.1647
RightForeArm  15.7798 62.9709 21.1837
RightHand  -0.740042 7.70597 -6.91338
LeftUpLeg  0.448678 1.17415 2.89762
LeftLeg  -1.34453 13.8243 -0.618437
LeftFoot  -0.786692 0.281601 -2.99833
LeftToes  4.7633e-008 1.48299e-008 1.30754e-009
190
root  -3.28008 40.9309 -0.564402 179.256 -87.9889 -175.502
RightUpLeg  -0.214994 -0.238078 -0.788274
RightLeg  -0.777312 -19.4562 -0.0337711
RightFoot  -0.793781 -0.266282 2.82595
RightToes  -3.10096e-008 1.75238e-005 3.56266e-009
Spine  1.06667 -0.307333 -13.5866
Spine1  1.70045 -2.56569 13.4741
HEad  -16.6878 9.2457 6.85868
LeftShoulder1  0.66488 0.426142 -14.736
LeftArm  -116.928 -47.8229 18.5376
LeftForeArm  137.272 -60.5374 -159.504
LeftHand  0.20361 -7.28858 -1.50047
RightShoulder  3.30363 6.91804 25.6438
RightArm  -6.64871 -37.8408 42.6183
RightForeArm  16.5365 63.9463 22.1601
RightHand  -0.719244 6.98684 -7.07392
LeftUpLeg  -0.766834 1.0166 2.9897
LeftLeg  -1.54757 13.9243 -0.622959
LeftFoot  -0.00987528 0.285375 -2.87557
LeftToes  4.7633e-008 1.48299e-008 1.30754e-009
191
root  -2.933 40.9461 -0.59455 168.533 -88.3731 -164.247
RightUpLeg  -1.17564 -0.0104609 -0.487677
RightLeg  -1.13071 -20.2303 0.349725
RightFoot  -0.106814 -0.238909 2.42091
RightToes  -3.10096e-008 1.75238e-005 3.56266e-009
Spine  2.44606 0.0176847 -12.51
Spine1  2.57826 -2.18364 11.7497
HEad  -18.6522 8.98273 7.35477
LeftShoulder1  0.791137 -0.144838 -14.8002
LeftArm  -108.747 -47.83 10.6281
LeftForeArm  131.414 -65.7088 -154.038
LeftHand  0.157332 -6.50299 -1.19249
RightShoulder  3.42374 7.13625 26.1436
RightArm  -5.25132 -37.2116 42.3344
RightForeArm  17.7443 64.7607 22.9636
RightHand  -0.644751 7.23213 -6.2685
LeftUpLeg  -2.03009 1.04846 3.33965
LeftLeg  -1.49234 13.5039 -0.542319
LeftFoot  0.667142 0.285474 -2.75468
LeftToes  4.7633e-008 1.48299e-008 1.30754e-009
192
root  -2.56111 40.9551 -0.637485 145.862 -88.8201 -140.621
RightUpLeg  -2.54731 0.0404418 -0.300328
RightLeg  -1.65425 -21.054 1.02289
RightFoot  0.643421 -0.202048 1.96665
RightToes  -3.10096e-008 1.75238e-005 3.56266e-009
Spine  3.08273 0.158411 -11.9428
Spine1  3.89546 -2.06238 10.8625
HEad  -20.5474 8.58919 8.00805
LeftShoulder1  1.06992 -1.35961 -15.1526
LeftArm  -99.4807 -47.0089 3.12652
LeftForeArm  116.398 -72.4962 -140.965
LeftHand  0.153561 -6.86475 -1.10661
RightShoulder  3.54697 7.47149 26.2851
RightArm  -3.7511 -36.2736 41.9447
RightForeArm  18.1513 65.1178 23.3575
RightHand  -0.688673 7.63158 -6.47626
LeftUpLeg  -3.73735 1.095 3.73576
LeftLeg  -1.63066 12.9072 -0.62022
LeftFoot  1.45027 0.274643 -2.52761
LeftToes  4.7633e-008 1.48299e-008 1.30754e-009
193
root  -2.24045 40.958 -0.685302 94.1771 -89.0708 -87.9814
RightUpLeg  -3.60252 -0.0551663 -0.255128
RightLeg  -2.58415 -22.044 1.88346
RightFoot  1.27676 -0.154485 1.47448
RightToes  -3.10096e-008 1.75238e-005 3.56266e-009
Spine  3.22719 -0.00218083 -11.607
Spine1  5.61906 -2.22786 10.0221
HEad  -21.7333 8.57864 9.02596
LeftShoulder1  1.33724 -2.45066 -15.6676
LeftArm  -91.1793 -46.6384 -1.21012
LeftForeArm  73.9798 -78.2071 -103.583
LeftHand  0.13233 -7.29801 -0.905231
RightShoulder  3.64425 7.69617 26.5148
RightArm  -2.33375 -35.3405 41.61
RightForeArm  18.3921 65.2679 23.5197
RightHand  -0.544918 7.02492 -5.44468
LeftUpLeg  -5.34355 0.964737 3.97964
LeftLeg  -1.90862 12.0687 -0.647765
LeftFoot  2.27924 0.284513 -2.49853
LeftToes  4.7633e-008 1.48299e-008 1.30754e-009
